<svg width="89" height="125" viewBox="0 0 89 125" fill="none" xmlns="http://www.w3.org/2000/svg">
<path d="M178.875 31.8748C196.375 41.7498 213 53.1248 221.5 68.9998C230 84.7498 230.25 104.875 230 124.75C229.625 144.75 228.625 164.5 221.125 182C213.625 199.5 199.625 214.875 182.5 221C165.5 227.25 145.25 224.5 126.125 222.375C107.125 220.375 89.2502 219.125 75.2502 211.125C61.2502 203.125 51.1252 188.25 39.5002 172.75C27.8752 157.375 14.8752 141.125 14.6252 124.875C14.3752 108.625 27.0002 92.1248 37.8752 75.3748C48.7502 58.6248 57.7502 41.3748 72.0002 29.7498C86.2502 17.9998 105.625 11.8748 124.375 12.8748C143.25 13.8748 161.5 22.1248 178.875 31.8748Z" fill="#E3F2FD"/>
</svg>
