<svg width="186" height="250" viewBox="0 0 186 250" fill="none" xmlns="http://www.w3.org/2000/svg">
<g opacity="0.6">
<path d="M100.254 19.1058C117.754 28.9808 134.379 40.3558 142.879 56.2308C151.379 71.9808 151.629 92.1058 151.379 111.981C151.004 131.981 150.004 151.731 142.504 169.231C135.004 186.731 121.004 202.106 103.879 208.231C86.8787 214.481 66.6287 211.731 47.5037 209.606C28.5037 207.606 10.6287 206.356 -3.37134 198.356C-17.3713 190.356 -27.4963 175.481 -39.1213 159.981C-50.7463 144.606 -63.7463 128.356 -63.9963 112.106C-64.2463 95.8558 -51.6213 79.3558 -40.7463 62.6058C-29.8713 45.8558 -20.8713 28.6058 -6.62135 16.9808C7.62865 5.23079 27.0037 -0.894213 45.7537 0.105787C64.6287 1.10579 82.8787 9.35578 100.254 19.1058Z" fill="#E3F2FD"/>
</g>
</svg>
