<svg width="123" height="103" viewBox="0 0 123 103" fill="none" xmlns="http://www.w3.org/2000/svg">
<path d="M156.1 -71.5C170.1 -63.6 183.4 -54.5 190.2 -41.8C197 -29.2 197.2 -13.1 197 2.79996C196.7 18.8 195.9 34.6 189.9 48.6C183.9 62.6 172.7 74.9 159 79.8C145.4 84.8 129.2 82.6 113.9 80.9C98.7002 79.3 84.4002 78.3 73.2002 71.9C62.0002 65.5 53.9002 53.6 44.6002 41.2C35.3002 28.9 24.9002 15.9 24.7002 2.89996C24.5002 -10.1 34.6002 -23.3 43.3002 -36.7C52.0002 -50.1 59.2002 -63.9 70.6002 -73.2C82.0002 -82.6 97.5002 -87.5 112.5 -86.7C127.6 -85.9 142.2 -79.3 156.1 -71.5Z" fill="#E3F2FD"/>
<path d="M145 -93.2998C158.8 -90.8998 171 -79.9998 174.1 -66.4998C177.2 -52.9998 171.2 -36.9998 168.9 -22.2998C166.7 -7.59978 168.3 5.90022 163.6 16.6002C158.9 27.3002 148 35.3002 136.4 42.1002C124.7 49.0002 112.4 54.6002 101.4 52.3002C90.4002 49.9002 80.7002 39.5002 72.4002 30.8002C64.0002 22.1002 56.9002 15.0002 46.7002 6.70022C36.5002 -1.69978 23.2002 -11.2998 19.6002 -23.0998C16.0002 -34.7998 22.1002 -48.5998 29.2002 -62.2998C36.3002 -76.0998 44.4002 -89.6998 56.4002 -93.1998C68.3002 -96.5998 84.2002 -89.8998 99.9002 -89.6998C115.6 -89.3998 131.1 -95.5998 145 -93.2998Z" fill="#1565C0"/>
</svg>
