<svg width="125" height="157" viewBox="0 0 125 157" fill="none" xmlns="http://www.w3.org/2000/svg">
<path d="M53.8752 -61.1252C71.3752 -51.2502 88.0002 -39.8752 96.5002 -24.0002C105 -8.25017 105.25 11.8748 105 31.7498C104.625 51.7498 103.625 71.4998 96.1252 88.9998C88.6252 106.5 74.6252 121.875 57.5002 128C40.5002 134.25 20.2502 131.5 1.12524 129.375C-17.8748 127.375 -35.7498 126.125 -49.7498 118.125C-63.7498 110.125 -73.8748 95.2498 -85.4998 79.7498C-97.1248 64.3748 -110.125 48.1248 -110.375 31.8748C-110.625 15.6248 -97.9998 -0.875176 -87.1248 -17.6252C-76.2498 -34.3752 -67.2498 -51.6252 -52.9998 -63.2502C-38.7498 -75.0002 -19.3748 -81.1252 -0.624762 -80.1252C18.2502 -79.1252 36.5002 -70.8752 53.8752 -61.1252Z" fill="#E3F2FD"/>
</svg>
