<svg width="238" height="40" viewBox="0 0 238 40" fill="none" xmlns="http://www.w3.org/2000/svg">
<path d="M4.56 25.9201H13.96V29.6001H1.19209e-07V1.8001H4.56V25.9201ZM37.7334 7.5601V29.6001H33.1734V27.0001C32.4534 27.9068 31.5068 28.6268 30.3334 29.1601C29.1868 29.6668 27.9601 29.9201 26.6534 29.9201C24.9201 29.9201 23.3601 29.5601 21.9734 28.8401C20.6134 28.1201 19.5334 27.0534 18.7334 25.6401C17.9601 24.2268 17.5734 22.5201 17.5734 20.5201V7.5601H22.0934V19.8401C22.0934 21.8134 22.5868 23.3334 23.5734 24.4001C24.5601 25.4401 25.9068 25.9601 27.6134 25.9601C29.3201 25.9601 30.6668 25.4401 31.6534 24.4001C32.6668 23.3334 33.1734 21.8134 33.1734 19.8401V7.5601H37.7334ZM42.23 18.5601C42.23 16.2934 42.6833 14.3068 43.59 12.6001C44.5233 10.8668 45.8033 9.53343 47.43 8.6001C49.0567 7.66676 50.9233 7.2001 53.03 7.2001C55.6967 7.2001 57.8967 7.8401 59.63 9.1201C61.39 10.3734 62.5767 12.1734 63.19 14.5201H58.27C57.87 13.4268 57.23 12.5734 56.35 11.9601C55.47 11.3468 54.3633 11.0401 53.03 11.0401C51.1633 11.0401 49.67 11.7068 48.55 13.0401C47.4567 14.3468 46.91 16.1868 46.91 18.5601C46.91 20.9334 47.4567 22.7868 48.55 24.1201C49.67 25.4534 51.1633 26.1201 53.03 26.1201C55.67 26.1201 57.4167 24.9601 58.27 22.6401H63.19C62.55 24.8801 61.35 26.6668 59.59 28.0001C57.83 29.3068 55.6433 29.9601 53.03 29.9601C50.9233 29.9601 49.0567 29.4934 47.43 28.5601C45.8033 27.6001 44.5233 26.2668 43.59 24.5601C42.6833 22.8268 42.23 20.8268 42.23 18.5601ZM76.4544 18.6001L86.6144 29.6001H80.4544L72.2944 20.1201V29.6001H67.7344V9.72748e-05H72.2944V17.2001L80.2944 7.5601H86.6144L76.4544 18.6001ZM109.723 7.5601L96.2028 39.9601H91.4828L95.9628 29.2401L87.2828 7.5601H92.3628L98.5628 24.3601L105.003 7.5601H109.723Z" fill="#616161"/>
<path d="M134.044 10.5601C134.044 12.1868 133.671 13.6801 132.924 15.0401C132.177 16.3734 131.031 17.4534 129.484 18.2801C127.937 19.1068 126.017 19.5201 123.724 19.5201H119.484V29.6001H112.644V1.5201H123.724C125.964 1.5201 127.857 1.90676 129.404 2.6801C130.951 3.45343 132.111 4.5201 132.884 5.8801C133.657 7.2401 134.044 8.8001 134.044 10.5601ZM123.204 14.0801C124.511 14.0801 125.484 13.7734 126.124 13.1601C126.764 12.5468 127.084 11.6801 127.084 10.5601C127.084 9.4401 126.764 8.57343 126.124 7.9601C125.484 7.34676 124.511 7.0401 123.204 7.0401H119.484V14.0801H123.204ZM136.245 18.4001C136.245 16.1068 136.672 14.0934 137.525 12.3601C138.405 10.6268 139.592 9.29343 141.085 8.3601C142.578 7.42676 144.245 6.9601 146.085 6.9601C147.658 6.9601 149.032 7.2801 150.205 7.9201C151.405 8.5601 152.325 9.4001 152.965 10.4401V7.2801H159.805V29.6001H152.965V26.4401C152.298 27.4801 151.365 28.3201 150.165 28.9601C148.992 29.6001 147.618 29.9201 146.045 29.9201C144.232 29.9201 142.578 29.4534 141.085 28.5201C139.592 27.5601 138.405 26.2134 137.525 24.4801C136.672 22.7201 136.245 20.6934 136.245 18.4001ZM152.965 18.4401C152.965 16.7334 152.485 15.3868 151.525 14.4001C150.592 13.4134 149.445 12.9201 148.085 12.9201C146.725 12.9201 145.565 13.4134 144.605 14.4001C143.672 15.3601 143.205 16.6934 143.205 18.4001C143.205 20.1068 143.672 21.4668 144.605 22.4801C145.565 23.4668 146.725 23.9601 148.085 23.9601C149.445 23.9601 150.592 23.4668 151.525 22.4801C152.485 21.4934 152.965 20.1468 152.965 18.4401ZM171.593 11.0001C172.393 9.77343 173.393 8.81343 174.593 8.1201C175.793 7.4001 177.127 7.0401 178.593 7.0401V14.2801H176.713C175.007 14.2801 173.727 14.6534 172.873 15.4001C172.02 16.1201 171.593 17.4001 171.593 19.2401V29.6001H164.753V7.2801H171.593V11.0001ZM180.503 18.4401C180.503 16.1201 180.969 14.0934 181.903 12.3601C182.863 10.6268 184.183 9.29343 185.863 8.3601C187.569 7.42676 189.516 6.9601 191.703 6.9601C194.503 6.9601 196.836 7.69343 198.703 9.1601C200.596 10.6268 201.836 12.6934 202.423 15.3601H195.143C194.529 13.6534 193.343 12.8001 191.583 12.8001C190.329 12.8001 189.329 13.2934 188.583 14.2801C187.836 15.2401 187.463 16.6268 187.463 18.4401C187.463 20.2534 187.836 21.6534 188.583 22.6401C189.329 23.6001 190.329 24.0801 191.583 24.0801C193.343 24.0801 194.529 23.2268 195.143 21.5201H202.423C201.836 24.1334 200.596 26.1868 198.703 27.6801C196.809 29.1734 194.476 29.9201 191.703 29.9201C189.516 29.9201 187.569 29.4534 185.863 28.5201C184.183 27.5868 182.863 26.2534 181.903 24.5201C180.969 22.7868 180.503 20.7601 180.503 18.4401ZM227.122 18.0801C227.122 18.7201 227.082 19.3868 227.002 20.0801H211.522C211.628 21.4668 212.068 22.5334 212.842 23.2801C213.642 24.0001 214.615 24.3601 215.762 24.3601C217.468 24.3601 218.655 23.6401 219.322 22.2001H226.602C226.228 23.6668 225.548 24.9868 224.562 26.1601C223.602 27.3334 222.388 28.2534 220.922 28.9201C219.455 29.5868 217.815 29.9201 216.002 29.9201C213.815 29.9201 211.868 29.4534 210.162 28.5201C208.455 27.5868 207.122 26.2534 206.162 24.5201C205.202 22.7868 204.722 20.7601 204.722 18.4401C204.722 16.1201 205.188 14.0934 206.122 12.3601C207.082 10.6268 208.415 9.29343 210.122 8.3601C211.828 7.42676 213.788 6.9601 216.002 6.9601C218.162 6.9601 220.082 7.41343 221.762 8.3201C223.442 9.22676 224.748 10.5201 225.682 12.2001C226.642 13.8801 227.122 15.8401 227.122 18.0801ZM220.122 16.2801C220.122 15.1068 219.722 14.1734 218.922 13.4801C218.122 12.7868 217.122 12.4401 215.922 12.4401C214.775 12.4401 213.802 12.7734 213.002 13.4401C212.228 14.1068 211.748 15.0534 211.562 16.2801H220.122ZM237.57 9.72748e-05V29.6001H230.73V9.72748e-05H237.57Z" fill="#1565C0"/>
</svg>
