<svg width="24" height="24" viewBox="0 0 24 24" fill="none" xmlns="http://www.w3.org/2000/svg">
<path opacity="0.16" d="M9 12C9.00013 12.5933 9.17614 13.1732 9.5058 13.6664C9.83545 14.1596 10.3039 14.544 10.852 14.7711C11.4001 14.9981 12.0032 15.0575 12.5851 14.9418C13.167 14.8261 13.7014 14.5404 14.121 14.121L17.481 17.481C15.8298 18.4849 13.9324 19.0107 12 19C7.336 19 3.6 16.097 2 12C2.901 9.69302 4.48 7.76402 6.52 6.52002L9.879 9.87902C9.31635 10.4415 9.00017 11.2044 9 12Z" fill="#1565C0"/>
<path d="M10.73 5.073C11.1516 5.02419 11.5756 4.99982 12 5C16.664 5 20.4 7.903 22 12C21.6126 12.9966 21.0893 13.9348 20.445 14.788M6.52 6.519C4.48 7.764 2.9 9.693 2 12C3.6 16.097 7.336 19 12 19C13.9321 19.0102 15.8292 18.484 17.48 17.48M9.88 9.88C9.6014 10.1586 9.3804 10.4893 9.22963 10.8534C9.07885 11.2174 9.00125 11.6075 9.00125 12.0015C9.00125 12.3955 9.07885 12.7856 9.22963 13.1496C9.3804 13.5137 9.6014 13.8444 9.88 14.123C10.1586 14.4016 10.4893 14.6226 10.8534 14.7734C11.2174 14.9242 11.6075 15.0018 12.0015 15.0018C12.3955 15.0018 12.7856 14.9242 13.1496 14.7734C13.5137 14.6226 13.8444 14.4016 14.123 14.123" stroke="#1565C0" stroke-width="2" stroke-linecap="round" stroke-linejoin="round"/>
<path d="M4 4L20 20" stroke="#1565C0" stroke-width="2" stroke-linecap="round"/>
</svg>
