<svg width="20" height="20" viewBox="0 0 20 20" fill="none" xmlns="http://www.w3.org/2000/svg">
<path opacity="0.5" d="M9.75098 5.75V9.75L12.251 12.25" stroke="#1565C0" stroke-width="2.75" stroke-linecap="round" stroke-linejoin="round"/>
<path d="M2.08858 4.62113L1.33858 4.62413C1.33937 4.82184 1.41819 5.01123 1.55789 5.15112C1.69759 5.29101 1.88688 5.37008 2.08458 5.37113L2.08858 4.62113ZM4.63058 5.38313C4.72907 5.38359 4.82669 5.36465 4.91786 5.32738C5.00903 5.29012 5.09197 5.23526 5.16194 5.16594C5.2319 5.09662 5.28754 5.0142 5.32565 4.92338C5.36377 4.83256 5.38362 4.73513 5.38408 4.63663C5.38454 4.53814 5.3656 4.44053 5.32833 4.34935C5.29106 4.25818 5.2362 4.17525 5.16689 4.10528C5.09757 4.03531 5.01514 3.97968 4.92433 3.94156C4.83351 3.90345 4.73607 3.88359 4.63758 3.88313L4.63058 5.38313ZM2.82558 2.07113C2.82505 1.97264 2.80514 1.87522 2.76696 1.78443C2.72878 1.69363 2.6731 1.61125 2.60308 1.54197C2.53307 1.4727 2.45009 1.4179 2.3589 1.38069C2.2677 1.34349 2.17007 1.32461 2.07158 1.32513C1.97309 1.32566 1.87566 1.34558 1.78487 1.38375C1.69408 1.42193 1.61169 1.47762 1.54242 1.54763C1.47315 1.61765 1.41835 1.70062 1.38114 1.79182C1.34393 1.88301 1.32505 1.98064 1.32558 2.07913L2.82558 2.07113ZM1.57758 8.53513C1.59195 8.43711 1.58676 8.33722 1.56231 8.24121C1.53785 8.14521 1.49462 8.05501 1.43511 7.9758C1.3756 7.8966 1.30098 7.82998 1.21558 7.77977C1.13017 7.72957 1.03566 7.69678 0.937517 7.68331C0.839369 7.66984 0.739524 7.67594 0.643749 7.70127C0.547973 7.7266 0.458165 7.77066 0.379512 7.83089C0.300858 7.89112 0.234916 7.96634 0.185496 8.05221C0.136076 8.13807 0.104156 8.23287 0.0915798 8.33113L1.57758 8.53513ZM16.6126 2.88813C12.7926 -0.931867 6.61958 -0.971867 2.82458 2.82413L3.88458 3.88413C7.08458 0.685133 12.3076 0.704133 15.5526 3.94813L16.6126 2.88813ZM2.88858 16.6121C6.70858 20.4321 12.8816 20.4721 16.6766 16.6761L15.6166 15.6161C12.4166 18.8151 7.19358 18.7961 3.94858 15.5521L2.88858 16.6121ZM16.6766 16.6761C20.4716 12.8811 20.4326 6.70813 16.6126 2.88813L15.5526 3.94813C18.7966 7.19313 18.8156 12.4161 15.6166 15.6161L16.6766 16.6761ZM2.82458 2.82413L1.55758 4.09013L2.61858 5.15013L3.88458 3.88413L2.82458 2.82413ZM2.08458 5.37113L4.63058 5.38313L4.63758 3.88313L2.09258 3.87113L2.08458 5.37113ZM2.83858 4.61713L2.82558 2.07113L1.32558 2.07913L1.33858 4.62413L2.83858 4.61713ZM0.0905797 8.33013C-0.115036 9.83272 0.0305285 11.3625 0.515838 12.7994C1.00115 14.2362 1.81298 15.541 2.88758 16.6111L3.94758 15.5511C3.03668 14.6445 2.34847 13.539 1.93707 12.3214C1.52566 11.1038 1.40226 9.80745 1.57658 8.53413L0.0905797 8.33013Z" fill="#1565C0"/>
</svg>
