<svg width="44" height="44" viewBox="0 0 44 44" fill="none" xmlns="http://www.w3.org/2000/svg">
<path fill-rule="evenodd" clip-rule="evenodd" d="M39.4757 21.2409L38.042 20.0932V38.9582H40.3337C40.6983 38.9582 41.0481 39.1031 41.3059 39.361C41.5638 39.6188 41.7087 39.9686 41.7087 40.3332C41.7087 40.6979 41.5638 41.0476 41.3059 41.3055C41.0481 41.5634 40.6983 41.7082 40.3337 41.7082H3.66699C3.30232 41.7082 2.95258 41.5634 2.69472 41.3055C2.43686 41.0476 2.29199 40.6979 2.29199 40.3332C2.29199 39.9686 2.43686 39.6188 2.69472 39.361C2.95258 39.1031 3.30232 38.9582 3.66699 38.9582H5.95866V20.0932L4.52683 21.2409C4.38574 21.3537 4.22382 21.4376 4.05031 21.4878C3.87681 21.538 3.69511 21.5536 3.51559 21.5336C3.33607 21.5136 3.16225 21.4584 3.00405 21.3712C2.84585 21.284 2.70637 21.1666 2.59358 21.0255C2.48078 20.8844 2.39688 20.7225 2.34666 20.549C2.29644 20.3755 2.28089 20.1938 2.30089 20.0142C2.3209 19.8347 2.37606 19.6609 2.46324 19.5027C2.55042 19.3445 2.66791 19.205 2.80899 19.0922L17.7048 7.17556C18.924 6.19998 20.4389 5.66846 22.0003 5.66846C23.5618 5.66846 25.0767 6.19998 26.2958 7.17556L41.1917 19.0922C41.3352 19.2041 41.4551 19.3433 41.5444 19.5018C41.6337 19.6603 41.6907 19.835 41.712 20.0157C41.7333 20.1964 41.7186 20.3795 41.6686 20.5544C41.6186 20.7294 41.5344 20.8927 41.4209 21.0349C41.3073 21.177 41.1667 21.2953 41.0071 21.3827C40.8476 21.4701 40.6722 21.525 40.4913 21.5441C40.3104 21.5633 40.1274 21.5464 39.9531 21.4943C39.7787 21.4423 39.6165 21.3561 39.4757 21.2409ZM22.0003 12.3749C20.6632 12.3749 19.3808 12.9061 18.4353 13.8516C17.4898 14.7971 16.9587 16.0794 16.9587 17.4166C16.9587 18.7537 17.4898 20.0361 18.4353 20.9816C19.3808 21.9271 20.6632 22.4582 22.0003 22.4582C23.3375 22.4582 24.6198 21.9271 25.5653 20.9816C26.5108 20.0361 27.042 18.7537 27.042 17.4166C27.042 16.0794 26.5108 14.7971 25.5653 13.8516C24.6198 12.9061 23.3375 12.3749 22.0003 12.3749ZM25.2013 24.4052C24.3598 24.2916 23.3093 24.2916 22.0902 24.2916H21.9105C20.6913 24.2916 19.6408 24.2916 18.7993 24.4052C17.8992 24.5262 17.0338 24.7994 16.3335 25.4997C15.6332 26.2001 15.36 27.0654 15.239 27.9656C15.1253 28.8071 15.1253 29.8576 15.1253 31.0767V38.9582H28.8753V30.8494C28.8753 29.7274 28.868 28.7539 28.7617 27.9656C28.6407 27.0654 28.3675 26.2001 27.6672 25.4997C26.9668 24.7994 26.1033 24.5262 25.2013 24.4052Z" fill="#1565C0"/>
<g opacity="0.5">
<path d="M19.708 17.4167C19.708 16.8089 19.9495 16.226 20.3792 15.7962C20.809 15.3664 21.3919 15.125 21.9997 15.125C22.6075 15.125 23.1904 15.3664 23.6201 15.7962C24.0499 16.226 24.2913 16.8089 24.2913 17.4167C24.2913 18.0245 24.0499 18.6073 23.6201 19.0371C23.1904 19.4669 22.6075 19.7083 21.9997 19.7083C21.3919 19.7083 20.809 19.4669 20.3792 19.0371C19.9495 18.6073 19.708 18.0245 19.708 17.4167Z" fill="#1565C0"/>
<path d="M19.708 17.4167C19.708 16.8089 19.9495 16.226 20.3792 15.7962C20.809 15.3664 21.3919 15.125 21.9997 15.125C22.6075 15.125 23.1904 15.3664 23.6201 15.7962C24.0499 16.226 24.2913 16.8089 24.2913 17.4167C24.2913 18.0245 24.0499 18.6073 23.6201 19.0371C23.1904 19.4669 22.6075 19.7083 21.9997 19.7083C21.3919 19.7083 20.809 19.4669 20.3792 19.0371C19.9495 18.6073 19.708 18.0245 19.708 17.4167Z" fill="#1565C0"/>
</g>
<path opacity="0.5" d="M22.0917 24.2917C23.309 24.2917 24.3595 24.2917 25.201 24.4053C26.103 24.5263 26.9665 24.7995 27.6668 25.4998C28.3672 26.2002 28.6403 27.0637 28.7613 27.9657C28.8677 28.754 28.875 29.7257 28.875 30.8495V38.9583H15.125V31.075C15.125 29.8577 15.125 28.8072 15.2387 27.9657C15.3597 27.0637 15.6328 26.2002 16.3332 25.4998C17.0335 24.7995 17.8988 24.5263 18.799 24.4053C19.6405 24.2917 20.691 24.2917 21.9102 24.2917H22.0917ZM29.3333 5.5H33.9167C34.1598 5.5 34.3929 5.59658 34.5648 5.76849C34.7368 5.94039 34.8333 6.17355 34.8333 6.41667V14.0067L28.4167 8.87333V6.41667C28.4167 6.17355 28.5132 5.94039 28.6852 5.76849C28.8571 5.59658 29.0902 5.5 29.3333 5.5Z" fill="#1565C0"/>
</svg>
