<svg width="30" height="30" viewBox="0 0 30 30" fill="none" xmlns="http://www.w3.org/2000/svg">
<path d="M8.4 20.8C8.71826 20.7072 9.06036 20.7446 9.35104 20.904C9.64172 21.0634 9.85717 21.3317 9.95 21.65C10.0428 21.9683 10.0054 22.3104 9.84602 22.601C9.68661 22.8917 9.41826 23.1072 9.1 23.2C8.475 23.3825 8.025 23.575 7.73625 23.75C8.03375 23.9288 8.50375 24.1287 9.15625 24.315C10.6 24.7275 12.6663 25 15 25C17.3337 25 19.4 24.7275 20.8437 24.315C21.4975 24.1287 21.9663 23.9288 22.2638 23.75C21.9763 23.575 21.5263 23.3825 20.9013 23.2C20.588 23.1031 20.3254 22.887 20.17 22.5982C20.0146 22.3095 19.9789 21.9712 20.0705 21.6564C20.1622 21.3416 20.3739 21.0754 20.66 20.9152C20.9461 20.755 21.2837 20.7136 21.6 20.8C22.435 21.0437 23.2 21.3562 23.7875 21.7575C24.3313 22.1313 25 22.7825 25 23.75C25 24.7288 24.315 25.385 23.7625 25.7588C23.165 26.1613 22.3838 26.475 21.53 26.7188C19.8075 27.2125 17.5 27.5 15 27.5C12.5 27.5 10.1925 27.2125 8.47 26.7188C7.61625 26.475 6.835 26.1613 6.2375 25.7588C5.685 25.3838 5 24.7288 5 23.75C5 22.7825 5.66875 22.1313 6.2125 21.7575C6.8 21.3562 7.565 21.0437 8.4 20.8ZM15 9.375C13.075 9.375 11.8725 11.4588 12.835 13.125C13.2812 13.8987 14.1062 14.375 15 14.375C16.925 14.375 18.1275 12.2912 17.165 10.625C16.9456 10.245 16.63 9.92937 16.25 9.70995C15.8699 9.49053 15.4388 9.37501 15 9.375Z" fill="#1565C0"/>
<path opacity="0.3" d="M15 2.5C17.4864 2.5 19.871 3.48772 21.6291 5.24587C23.3873 7.00403 24.375 9.3886 24.375 11.875C24.375 15.085 22.625 17.695 20.8125 19.55C20.092 20.2799 19.3177 20.9547 18.4963 21.5687C17.7537 22.1262 16.0563 23.1713 16.0563 23.1713C15.7343 23.3542 15.3703 23.4505 15 23.4505C14.6297 23.4505 14.2657 23.3542 13.9437 23.1713C13.1013 22.6828 12.2867 22.1478 11.5037 21.5687C10.6823 20.9547 9.908 20.2799 9.1875 19.55C7.375 17.695 5.625 15.085 5.625 11.875C5.625 9.3886 6.61272 7.00403 8.37087 5.24587C10.129 3.48772 12.5136 2.5 15 2.5Z" fill="#1565C0"/>
</svg>
