<svg width="44" height="44" viewBox="0 0 44 44" fill="none" xmlns="http://www.w3.org/2000/svg">
<path opacity="0.2" d="M22.7401 22.7404C17.6638 20.213 12.5857 17.6856 5.55664 23.0286V22.7404C5.55615 19.7729 6.32418 16.8559 7.78593 14.2733C9.24767 11.6908 11.3533 9.53087 13.8978 8.00384C22.0402 11.419 22.3821 17.0806 22.7401 22.7404ZM14.3989 37.7759C16.9937 39.2159 19.9171 39.9594 22.8845 39.934C25.8519 39.9086 28.7621 39.1152 31.3318 37.6309C31.4159 37.5826 31.5 37.5361 31.5824 37.4859C23.4399 34.0618 23.0981 28.4002 22.7401 22.7404C18.0128 25.8728 13.2856 29.0052 14.3989 37.7759ZM39.9235 22.4522C39.8735 19.4849 39.0559 16.5811 37.5502 14.0236C36.0446 11.4662 33.9022 9.34231 31.3318 7.85885L31.0812 7.71387C32.1945 16.4756 27.4673 19.608 22.7401 22.7404C27.8163 25.2678 32.8944 27.7952 39.9235 22.4522Z" fill="#1565C0"/>
<path d="M22.7404 4.125C19.0586 4.125 15.4595 5.21677 12.3982 7.26226C9.33695 9.30774 6.95097 12.2151 5.54202 15.6166C4.13307 19.0181 3.76442 22.761 4.4827 26.3721C5.20098 29.9831 6.97392 33.3 9.57733 35.9034C12.1807 38.5069 15.4977 40.2798 19.1087 40.9981C22.7197 41.7163 26.4627 41.3477 29.8642 39.9387C33.2657 38.5298 36.173 36.1438 38.2185 33.0825C40.264 30.0212 41.3558 26.4222 41.3558 22.7404C41.3506 17.8049 39.3876 13.073 35.8977 9.58307C32.4078 6.09314 27.6759 4.13021 22.7404 4.125ZM38.4596 21.7488C33.387 25.3286 29.5869 24.3764 25.5953 22.5345C29.1878 19.9946 32.5511 16.7691 32.671 10.5222C34.3589 11.8922 35.7448 13.597 36.7411 15.5293C37.7374 17.4615 38.3225 19.5791 38.4596 21.7488ZM29.7408 8.63386C30.3011 14.8127 27.5732 17.6283 23.9933 20.1647C23.5906 15.7829 22.4826 11.2508 17.1253 8.02528C19.1566 7.2492 21.3267 6.90259 23.4987 7.00734C25.6706 7.11208 27.7973 7.66591 29.7444 8.63386H29.7408ZM14.027 9.62549C19.6563 12.2299 20.7339 15.9941 21.1348 20.3651C17.1379 18.5233 12.6594 17.2166 7.18581 20.2434C7.53359 18.0979 8.32075 16.0474 9.49795 14.2203C10.6752 12.3932 12.217 10.8289 14.027 9.62549ZM7.02113 23.732C12.0938 20.1521 15.8939 21.1044 19.8854 22.9462C16.2966 25.4861 12.9297 28.7116 12.8098 34.9585C11.1218 33.5885 9.73601 31.8837 8.73971 29.9515C7.74342 28.0193 7.15826 25.9016 7.02113 23.732ZM15.7399 36.8469C15.1797 30.668 17.9075 27.8525 21.4874 25.3161C21.8902 29.6979 22.9981 34.23 28.3554 37.4555C26.3242 38.2316 24.1541 38.5782 21.9821 38.4734C19.8102 38.3687 17.6835 37.8149 15.7364 36.8469H15.7399ZM31.4538 35.8553C25.8245 33.2509 24.7469 29.4867 24.346 25.1156C26.6228 26.1645 29.0553 27.0398 31.7384 27.0398C33.7664 27.0398 35.9376 26.5386 38.295 25.2356C37.9472 27.3813 37.1601 29.4321 35.9829 31.2595C34.8057 33.0869 33.2638 34.6515 31.4538 35.8553Z" fill="#1565C0"/>
</svg>
