<svg width="44" height="44" viewBox="0 0 44 44" fill="none" xmlns="http://www.w3.org/2000/svg">
<path d="M7.33379 33.0001C7.09173 33.0056 6.8511 32.9616 6.62664 32.8708C6.40218 32.78 6.19863 32.6444 6.02846 32.4721C5.85622 32.302 5.72055 32.0984 5.62976 31.874C5.53897 31.6495 5.49497 31.4089 5.50046 31.1668C5.50046 30.6486 5.67646 30.2135 6.02846 29.8615C6.19863 29.6892 6.40218 29.5536 6.62664 29.4628C6.8511 29.372 7.09173 29.328 7.33379 29.3335H27.5005C28.0199 29.3335 28.4556 29.5095 28.8076 29.8615C28.9795 30.0318 29.1149 30.2354 29.2053 30.4599C29.2958 30.6843 29.3395 30.9249 29.3338 31.1668C29.3338 31.685 29.1584 32.1201 28.8076 32.4721C28.6372 32.6446 28.4334 32.7804 28.2086 32.8712C27.9838 32.962 27.7428 33.0059 27.5005 33.0001H7.33379Z" fill="#1565C0"/>
<path opacity="0.3" d="M31.9 22.0002L37.2167 27.3169C37.3836 27.4852 37.5145 27.6859 37.6012 27.9066C37.6879 28.1272 37.7286 28.3633 37.7208 28.6002C37.7286 28.8372 37.6879 29.0733 37.6012 29.2939C37.5145 29.5146 37.3836 29.7152 37.2167 29.8836C37.0483 30.0505 36.8477 30.1814 36.627 30.2681C36.4064 30.3548 36.1703 30.3955 35.9333 30.3877C35.6964 30.3955 35.4603 30.3548 35.2397 30.2681C35.019 30.1814 34.8183 30.0505 34.65 29.8836L28.05 23.2836C27.8756 23.1185 27.7369 22.9195 27.6423 22.6988C27.5477 22.4781 27.4993 22.2404 27.5 22.0002C27.5 21.5114 27.6833 21.0836 28.05 20.7169L34.65 14.1169C34.8183 13.9499 35.019 13.8191 35.2397 13.7324C35.4603 13.6457 35.6964 13.605 35.9333 13.6127C36.4528 13.6127 36.8806 13.7808 37.2167 14.1169C37.3836 14.2852 37.5145 14.4859 37.6012 14.7066C37.6879 14.9272 37.7286 15.1633 37.7208 15.4002C37.7286 15.6372 37.6879 15.8733 37.6012 16.0939C37.5145 16.3146 37.3836 16.5152 37.2167 16.6836L31.9 22.0002Z" fill="#1565C0"/>
<path d="M7.33286 14.6667C7.09093 14.6724 6.85037 14.6287 6.62592 14.5383C6.40147 14.4478 6.19785 14.3125 6.02752 14.1406C5.85506 13.9702 5.71926 13.7663 5.62846 13.5415C5.53766 13.3167 5.49378 13.0758 5.49952 12.8334C5.49952 12.3139 5.67552 11.8782 6.02752 11.5262C6.19785 11.3543 6.40147 11.219 6.62592 11.1285C6.85037 11.038 7.09093 10.9943 7.33286 11.0001H27.4995C27.7418 10.9941 27.9827 11.0377 28.2074 11.1281C28.4322 11.2186 28.6361 11.3541 28.8067 11.5262C28.9788 11.6968 29.1143 11.9007 29.2048 12.1255C29.2952 12.3502 29.3388 12.5912 29.3329 12.8334C29.3388 13.0756 29.2952 13.3165 29.2048 13.5413C29.1143 13.7661 28.9788 13.97 28.8067 14.1406C28.6361 14.3127 28.4322 14.4481 28.2074 14.5386C27.9827 14.6291 27.7418 14.6727 27.4995 14.6667H7.33286Z" fill="#1565C0"/>
<path opacity="0.3" d="M7.33379 23.8332C7.09173 23.8387 6.8511 23.7947 6.62664 23.7039C6.40218 23.6131 6.19863 23.4775 6.02846 23.3052C5.85622 23.1351 5.72055 22.9315 5.62976 22.707C5.53897 22.4826 5.49497 22.242 5.50046 21.9999C5.50046 21.4804 5.67646 21.0447 6.02846 20.6927C6.19879 20.5208 6.40241 20.3855 6.62686 20.295C6.85131 20.2045 7.09186 20.1608 7.33379 20.1666H22.0005C22.2427 20.1606 22.4836 20.2042 22.7084 20.2946C22.9332 20.3851 23.1371 20.5206 23.3076 20.6927C23.4798 20.8633 23.6152 21.0672 23.7057 21.292C23.7962 21.5168 23.8398 21.7577 23.8338 21.9999C23.8338 22.5181 23.6584 22.9532 23.3076 23.3052C23.1372 23.4777 22.9334 23.6135 22.7086 23.7043C22.4838 23.7951 22.2428 23.839 22.0005 23.8332H7.33379Z" fill="#1565C0"/>
</svg>
