<svg width="36" height="36" viewBox="0 0 36 36" fill="none" xmlns="http://www.w3.org/2000/svg">
<path opacity="0.5" d="M28.1251 13.5V14.556C28.1251 15.8235 28.4851 17.0625 29.1631 18.117L30.8251 20.7015C32.3416 23.0625 31.1836 26.271 28.5451 27.0165C21.6507 28.969 14.3495 28.969 7.45509 27.0165C4.81659 26.271 3.65859 23.0625 5.17509 20.7015L6.83709 18.117C7.51691 17.0538 7.87767 15.818 7.87659 14.556V13.5C7.87659 7.701 12.4096 3 18.0001 3C23.5906 3 28.1251 7.701 28.1251 13.5Z" fill="#1565C0"/>
<path d="M10.8643 27.8174C11.3544 29.3236 12.3086 30.636 13.5902 31.5667C14.8718 32.4974 16.4151 32.9987 17.999 32.9987C19.5829 32.9987 21.1262 32.4974 22.4078 31.5667C23.6894 30.636 24.6436 29.3236 25.1338 27.8174C20.4163 28.7024 15.5833 28.7024 10.8643 27.8174Z" fill="#1565C0"/>
<circle cx="27.4092" cy="6.95459" r="4.5" fill="#1565C0"/>
</svg>
