<svg width="44" height="44" viewBox="0 0 44 44" fill="none" xmlns="http://www.w3.org/2000/svg">
<path d="M15.4407 37.7998C18.66 39.4901 20.2697 40.3335 22.0003 40.3335V22.0001L4.83666 12.9673L4.76333 13.0901C3.66699 14.9491 3.66699 17.2646 3.66699 21.8938V22.1083C3.66699 26.7356 3.66699 29.0511 4.76149 30.9101C5.85783 32.771 7.83049 33.8068 11.774 35.8766L15.4407 37.7998Z" fill="#1565C0"/>
<path opacity="0.7" d="M32.2241 8.12517L28.5574 6.20017C25.3399 4.51167 23.7303 3.6665 21.9996 3.6665C20.2671 3.6665 18.6593 4.50984 15.4399 6.20017L11.7733 8.12517C7.91594 10.1492 5.94327 11.1832 4.83594 12.9652L21.9996 21.9998L39.1633 12.967C38.0523 11.1832 36.0833 10.1492 32.2241 8.12517Z" fill="#1565C0"/>
<path opacity="0.5" d="M39.2388 13.0901L39.1637 12.9673L22 22.0001V40.3335C23.7307 40.3335 25.3403 39.4901 28.5597 37.7998L32.2263 35.8748C36.1698 33.805 38.1425 32.771 39.2388 30.9101C40.3333 29.0511 40.3333 26.7356 40.3333 22.1101V21.8956C40.3333 17.2665 40.3333 14.9491 39.2388 13.0901Z" fill="#1565C0"/>
<path d="M11.5924 8.22066L11.7757 8.12532L14.5129 6.68799L31.1962 15.8638L38.5754 12.177C38.826 12.4605 39.0472 12.7649 39.2391 13.09C39.5141 13.5557 39.7194 14.0507 39.8734 14.6025L32.5419 18.2673V23.8333C32.5419 24.198 32.397 24.5477 32.1392 24.8056C31.8813 25.0635 31.5316 25.2083 31.1669 25.2083C30.8022 25.2083 30.4525 25.0635 30.1946 24.8056C29.9368 24.5477 29.7919 24.198 29.7919 23.8333V19.6423L23.3752 22.8507V40.1573C22.9262 40.2737 22.4642 40.3329 22.0002 40.3333C21.5456 40.3333 21.0964 40.2747 20.6252 40.1573V22.8507L4.12891 14.6007C4.28291 14.0507 4.48824 13.5557 4.76324 13.09C4.95391 12.7649 5.17513 12.4605 5.42691 12.177L22.0002 20.4637L28.2097 17.3598L11.5924 8.22066Z" fill="#1565C0"/>
</svg>
