<svg width="17" height="17" viewBox="0 0 17 17" fill="none" xmlns="http://www.w3.org/2000/svg">
<path fill-rule="evenodd" clip-rule="evenodd" d="M8.5 0C9.62717 0 10.7082 0.447767 11.5052 1.2448C12.3022 2.04183 12.75 3.12283 12.75 4.25V6.42813C13.35 6.55059 13.8892 6.8766 14.2764 7.35096C14.6637 7.82532 14.8751 8.4189 14.875 9.03125V14.3438C14.875 15.0482 14.5951 15.7239 14.097 16.222C13.5989 16.7201 12.9232 17 12.2188 17H4.78125C4.07677 17 3.40114 16.7201 2.903 16.222C2.40485 15.7239 2.125 15.0482 2.125 14.3438V9.03125C2.12488 8.4189 2.33632 7.82532 2.72356 7.35096C3.11079 6.8766 3.65003 6.55059 4.25 6.42813V4.25C4.25 3.12283 4.69777 2.04183 5.4948 1.2448C6.29183 0.447767 7.37283 0 8.5 0ZM8.5 1.0625C7.65462 1.0625 6.84387 1.39832 6.2461 1.9961C5.64832 2.59387 5.3125 3.40462 5.3125 4.25V6.375H11.6875V4.25C11.6875 3.40462 11.3517 2.59387 10.7539 1.9961C10.1561 1.39832 9.34538 1.0625 8.5 1.0625Z" fill="#1565C0"/>
</svg>
