<svg width="24" height="24" viewBox="0 0 24 24" fill="none" xmlns="http://www.w3.org/2000/svg">
<path d="M12 13C14.396 13 16.575 13.694 18.178 14.671C18.978 15.161 19.662 15.736 20.156 16.361C20.642 16.977 21 17.713 21 18.5C21 19.345 20.589 20.011 19.997 20.486C19.437 20.936 18.698 21.234 17.913 21.442C16.335 21.859 14.229 22 12 22C9.771 22 7.665 21.86 6.087 21.442C5.302 21.234 4.563 20.936 4.003 20.486C3.41 20.01 3 19.345 3 18.5C3 17.713 3.358 16.977 3.844 16.361C4.338 15.736 5.021 15.161 5.822 14.671C7.425 13.694 9.605 13 12 13Z" fill="#1565C0"/>
<path opacity="0.3" d="M12.0002 2C15.8492 2 18.2552 6.167 16.3302 9.5C15.8914 10.2601 15.2602 10.8913 14.5002 11.3301C13.7401 11.7689 12.8779 12 12.0002 12C8.15123 12 5.74523 7.833 7.67023 4.5C8.10907 3.73992 8.74024 3.10875 9.50031 2.6699C10.2604 2.23106 11.1226 2.00002 12.0002 2Z" fill="#1565C0"/>
</svg>
