<svg width="44" height="44" viewBox="0 0 44 44" fill="none" xmlns="http://www.w3.org/2000/svg">
<path opacity="0.5" d="M18.3333 36.6668H25.6667C32.5802 36.6668 36.0378 36.6668 38.1847 34.5182C40.3315 32.3695 40.3333 28.9137 40.3333 22.0002C40.3333 21.1898 40.3297 19.0522 40.326 18.3335H3.66667C3.663 19.0522 3.66667 21.1898 3.66667 22.0002C3.66667 28.9137 3.66667 32.3713 5.8135 34.5182C7.96034 36.665 11.4217 36.6668 18.3333 36.6668Z" fill="#1565C0"/>
<path d="M18.3245 7.3335H25.6762C32.608 7.3335 36.0748 7.3335 38.2272 9.3795C39.7782 10.8517 40.2127 12.9728 40.3337 16.5002V18.3335H3.66699V16.5002C3.78799 12.971 4.22249 10.8535 5.77349 9.3795C7.92583 7.3335 11.3927 7.3335 18.3245 7.3335ZM22.917 27.9585C22.5523 27.9585 22.2026 28.1034 21.9447 28.3612C21.6869 28.6191 21.542 28.9688 21.542 29.3335C21.542 29.6982 21.6869 30.0479 21.9447 30.3058C22.2026 30.5636 22.5523 30.7085 22.917 30.7085H25.667C26.0317 30.7085 26.3814 30.5636 26.6393 30.3058C26.8971 30.0479 27.042 29.6982 27.042 29.3335C27.042 28.9688 26.8971 28.6191 26.6393 28.3612C26.3814 28.1034 26.0317 27.9585 25.667 27.9585H22.917ZM11.0003 27.9585C10.6357 27.9585 10.2859 28.1034 10.0281 28.3612C9.77019 28.6191 9.62533 28.9688 9.62533 29.3335C9.62533 29.6982 9.77019 30.0479 10.0281 30.3058C10.2859 30.5636 10.6357 30.7085 11.0003 30.7085H18.3337C18.6983 30.7085 19.0481 30.5636 19.3059 30.3058C19.5638 30.0479 19.7087 29.6982 19.7087 29.3335C19.7087 28.9688 19.5638 28.6191 19.3059 28.3612C19.0481 28.1034 18.6983 27.9585 18.3337 27.9585H11.0003Z" fill="#1565C0"/>
</svg>
